<svg xmlns="http://www.w3.org/2000/svg" viewBox="-2.00 -67.00 2025.98 234.00" role="img" aria-label="Argent Research"><title>Argent Research</title><circle cx="126.44" cy="-58.99" r="6.01" fill="#FFFFFF"/><circle cx="110.39" cy="-28.70" r="7.56" fill="#FFFFFF"/><circle cx="165.41" cy="-28.70" r="4.12" fill="#FFFFFF"/><circle cx="199.81" cy="-28.70" r="4.29" fill="#4BB3F2"/><circle cx="137.90" cy="-28.69" r="5.14" fill="#4BB3F2"/><circle cx="151.66" cy="-0.72" r="7.91" fill="#4BB3F2"/><circle cx="183.76" cy="-0.72" r="4.63" fill="#4BB3F2"/><circle cx="92.05" cy="3.94" r="8.25" fill="#FFFFFF"/><circle cx="126.44" cy="8.60" r="6.01" fill="#FFFFFF"/><circle cx="110.39" cy="41.23" r="9.97" fill="#FFFFFF"/><circle cx="71.41" cy="45.90" r="8.25" fill="#FFFFFF"/><circle cx="183.76" cy="45.90" r="5.49" fill="#4BB3F2"/><circle cx="144.78" cy="48.23" r="8.93" fill="#4BB3F2"/><circle cx="181.46" cy="69.21" r="5.66" fill="#4BB3F2"/><circle cx="89.76" cy="71.53" r="9.45" fill="#FFFFFF"/><circle cx="126.44" cy="71.54" r="6.53" fill="#FFFFFF"/><circle cx="53.07" cy="78.53" r="8.59" fill="#FFFFFF"/><circle cx="73.71" cy="99.51" r="8.59" fill="#FFFFFF"/><circle cx="165.41" cy="99.51" r="6.87" fill="#4BB3F2"/><circle cx="197.51" cy="99.51" r="6.87" fill="#4BB3F2"/><circle cx="110.39" cy="99.51" r="9.62" fill="#FFFFFF"/><circle cx="137.90" cy="99.51" r="6.53" fill="#4BB3F2"/><circle cx="27.85" cy="122.82" r="8.08" fill="#FFFFFF"/><circle cx="94.34" cy="125.15" r="7.22" fill="#FFFFFF"/><circle cx="149.37" cy="125.15" r="6.01" fill="#4BB3F2"/><circle cx="181.46" cy="127.48" r="6.01" fill="#4BB3F2"/><circle cx="57.65" cy="129.81" r="6.87" fill="#FFFFFF"/><circle cx="7.22" cy="157.78" r="7.22" fill="#FFFFFF"/><circle cx="43.90" cy="157.78" r="7.22" fill="#FFFFFF"/><circle cx="80.58" cy="157.78" r="7.22" fill="#FFFFFF"/><circle cx="163.12" cy="157.78" r="5.32" fill="#4BB3F2"/><circle cx="197.51" cy="157.78" r="3.94" fill="#4BB3F2"/><path d="M336.67 100H321.13L364.49 0H377.2L420.14 100H404.32L394.15 75.42H346.7ZM351.64 63.14H389.07L370.42 16.24Z M475.23 100H461.24V0H493.31Q500.51 0 507.01 1.48Q513.5 2.97 518.38 6.21Q523.25 9.46 526.07 14.76Q528.9 20.06 528.9 27.68Q528.9 38.7 522.12 45.48Q515.34 52.26 504.61 54.1L532.57 100H515.62L490.2 55.51H475.23ZM475.23 43.79H491.33Q496.27 43.79 500.51 42.94Q504.75 42.09 507.92 40.18Q511.1 38.28 512.94 35.24Q514.78 32.2 514.78 27.68Q514.78 23.16 512.94 20.13Q511.1 17.09 508.07 15.25Q505.03 13.42 500.93 12.64Q496.84 11.86 492.32 11.86H475.23Z M651.64 20.62Q647.12 15.68 640.13 12.71Q633.14 9.75 624.52 9.75Q615.76 9.75 608.7 12.92Q601.64 16.1 596.7 21.61Q591.75 27.12 589.07 34.39Q586.39 41.67 586.39 49.86Q586.39 58.19 589.07 65.54Q591.75 72.88 596.7 78.32Q601.64 83.76 608.84 86.86Q616.05 89.97 624.94 89.97Q632.01 89.97 637.94 88.7Q643.87 87.43 648.25 85.03V57.2H626.07V45.34H662.09V93.79Q654.18 98.02 644.86 100.28Q635.54 102.54 624.52 102.54Q612.8 102.54 602.98 98.66Q593.17 94.77 586.1 87.78Q579.04 80.79 575.09 71.12Q571.13 61.44 571.13 49.86Q571.13 38.14 575.16 28.46Q579.18 18.79 586.31 11.94Q593.45 5.08 603.19 1.27Q612.94 -2.54 624.38 -2.54Q636.39 -2.54 645.78 0.99Q655.17 4.52 661.39 10.45Z M728.33 87.57H780.59V100H714.35V0H778.48V12.29H728.33V42.23H775.51V54.24H728.33Z M897.97 79.94H898.25V0H912.23V100H894.58L841.75 18.36H841.47V100H827.49V0H845.71Z M999.8 100H985.82V12.29H953.76V0H1031.87V12.29H999.8Z" fill="#FFFFFF"/><path d="M1142.88 100H1132.71V0H1162.09Q1169.44 0 1175.72 1.41Q1182.01 2.82 1186.6 6Q1191.19 9.18 1193.73 14.27Q1196.27 19.35 1196.27 26.69Q1196.27 32.2 1194.29 36.72Q1192.32 41.24 1188.93 44.56Q1185.54 47.88 1180.88 49.86Q1176.22 51.84 1170.71 52.4L1199.94 100H1187.52L1159.83 53.25H1142.88ZM1142.88 44.49H1160.54Q1172.83 44.49 1179.46 40.04Q1186.1 35.59 1186.1 26.69Q1186.1 21.75 1184.27 18.36Q1182.43 14.97 1179.18 12.85Q1175.93 10.73 1171.27 9.75Q1166.61 8.76 1160.96 8.76H1142.88Z M1255.74 90.96H1309.27V100H1245.57V0H1307.57V9.04H1255.74V43.5H1304.18V52.4H1255.74Z M1405.88 16.1Q1402.63 11.58 1397.54 8.83Q1392.46 6.07 1385.26 6.07Q1381.58 6.07 1377.77 7.2Q1373.96 8.33 1370.85 10.66Q1367.74 12.99 1365.83 16.53Q1363.93 20.06 1363.93 24.86Q1363.93 29.66 1365.76 32.77Q1367.6 35.88 1370.64 38.06Q1373.67 40.25 1377.56 41.67Q1381.44 43.08 1385.68 44.49Q1390.91 46.19 1396.2 48.16Q1401.5 50.14 1405.74 53.32Q1409.97 56.5 1412.66 61.37Q1415.34 66.24 1415.34 73.73Q1415.34 81.21 1412.44 86.65Q1409.55 92.09 1404.96 95.62Q1400.37 99.15 1394.51 100.85Q1388.65 102.54 1382.71 102.54Q1378.19 102.54 1373.67 101.62Q1369.15 100.71 1365.06 98.87Q1360.96 97.03 1357.43 94.21Q1353.9 91.38 1351.22 87.71L1359.97 81.21Q1363.22 86.58 1369.08 90.18Q1374.94 93.79 1382.85 93.79Q1386.67 93.79 1390.62 92.58Q1394.58 91.38 1397.76 88.91Q1400.93 86.44 1402.98 82.84Q1405.03 79.24 1405.03 74.44Q1405.03 69.21 1402.98 65.75Q1400.93 62.29 1397.54 59.96Q1394.15 57.63 1389.78 56.07Q1385.4 54.52 1380.59 52.97Q1375.65 51.41 1370.85 49.44Q1366.05 47.46 1362.23 44.28Q1358.42 41.1 1356.09 36.44Q1353.76 31.78 1353.76 25Q1353.76 17.8 1356.65 12.57Q1359.55 7.34 1364.21 3.95Q1368.87 0.56 1374.52 -0.99Q1380.17 -2.54 1385.68 -2.54Q1395.85 -2.54 1403.05 1.06Q1410.26 4.66 1413.93 9.6Z M1475.51 90.96H1529.04V100H1465.34V0H1527.35V9.04H1475.51V43.5H1523.96V52.4H1475.51Z M1576.5 100H1565.34L1608.56 0H1618.45L1661.39 100H1650.09L1639.07 73.73H1587.37ZM1591.19 64.41H1635.26L1613.22 11.3Z M1714.49 100H1704.32V0H1733.7Q1741.05 0 1747.33 1.41Q1753.62 2.82 1758.21 6Q1762.8 9.18 1765.34 14.27Q1767.88 19.35 1767.88 26.69Q1767.88 32.2 1765.91 36.72Q1763.93 41.24 1760.54 44.56Q1757.15 47.88 1752.49 49.86Q1747.83 51.84 1742.32 52.4L1771.55 100H1759.13L1731.44 53.25H1714.49ZM1714.49 44.49H1732.15Q1744.44 44.49 1751.07 40.04Q1757.71 35.59 1757.71 26.69Q1757.71 21.75 1755.88 18.36Q1754.04 14.97 1750.79 12.85Q1747.54 10.73 1742.88 9.75Q1738.22 8.76 1732.57 8.76H1714.49Z M1901.36 83.9Q1898.81 87.71 1895.21 91.1Q1891.61 94.49 1886.88 97.03Q1882.15 99.58 1876.43 101.06Q1870.71 102.54 1863.93 102.54Q1852.63 102.54 1843.02 98.59Q1833.42 94.63 1826.5 87.64Q1819.58 80.65 1815.69 71.05Q1811.81 61.44 1811.81 50Q1811.81 38.56 1815.76 28.95Q1819.72 19.35 1826.71 12.36Q1833.7 5.37 1843.24 1.41Q1852.77 -2.54 1863.93 -2.54Q1869.44 -2.54 1874.73 -1.41Q1880.03 -0.28 1884.69 1.77Q1889.35 3.81 1893.17 6.71Q1896.98 9.6 1899.52 13.28L1891.05 19.49Q1889.49 17.09 1886.88 14.69Q1884.27 12.29 1880.74 10.45Q1877.2 8.62 1873.04 7.49Q1868.87 6.36 1864.07 6.36Q1854.32 6.36 1846.63 9.89Q1838.93 13.42 1833.56 19.42Q1828.19 25.42 1825.37 33.33Q1822.54 41.24 1822.54 50Q1822.54 58.76 1825.44 66.67Q1828.33 74.58 1833.7 80.58Q1839.07 86.58 1846.77 90.11Q1854.46 93.64 1864.07 93.64Q1872.68 93.64 1880.45 90.11Q1888.22 86.58 1893.45 78.81Z M1947.12 0H1957.29V43.36H2011.81V0H2021.98V100H2011.81V52.68H1957.29V100H1947.12Z" fill="#4BB3F2"/></svg>